# xmcd
#
# Track frame offsets:
#	183
#	14358
#	32630
#
# Disc length: 819 seconds
#
# Revision: 1
# Processed by: cddbd v1.4PL0 Copyright (c) Steve Scherf et al.
# Submitted via: EasyCDDAExtractor 5.0.7
#
DISCID=19033103
DTITLE=Safire - Taste The Bass
DYEAR=1900
DGENRE=
TTITLE0=Taste The Bass(Radio Mix)
TTITLE1=Taste The Bass(Hot Mix)
TTITLE2=Taste The Bass(Slammin' Club Mix)
EXTD=
EXTT0=
EXTT1=
EXTT2=
PLAYORDER=
